<?xml version="1.0" encoding="UTF-8"?>
<svg width="234px" height="48px" viewBox="0 0 234 48" version="1.1" xmlns="http://www.w3.org/2000/svg" xmlns:xlink="http://www.w3.org/1999/xlink">
    <!-- Generator: Sketch 42 (36781) - http://www.bohemiancoding.com/sketch -->
    <title>Slice 2</title>
    <desc>Created with Sketch.</desc>
    <defs></defs>
    <g id="Page-1" stroke="none" stroke-width="1" fill="none" fill-rule="evenodd">
        <path d="M231.824219,6 L231.824219,39 C231.824219,41.6666667 230.490885,43 227.824219,43 L6,43 C3.33333333,43 2,41.6666667 2,39 L2,6 L2.1,5.05 C2.36666667,3.01666667 3.66666667,2 6,2 L227.824219,2 C230.157552,2 231.474219,3.01666667 231.774219,5.05 L231.824219,6 Z M229.774219,5.3 C229.590885,4.45 228.924219,4 227.824219,4 L42.5,4 L39.7,6.8 L36.9,4 L27.55,4 L25.3,6.25 L23.05,4 L6,4 C4.9,4 4.26666667,4.43333333 4.1,5.3 L4.05,5.5 L4,6 L4,29.9 L6.75,32.65 L4,35.4 L4,39 C4,40.3333333 4.66666667,41 6,41 L97.9,41 L100.65,38.25 L103.4,41 L189.774219,41 L191.324219,39.45 L192.874219,41 L227.824219,41 C229.157552,41 229.824219,40.3333333 229.824219,39 L229.824219,16.1 L227.424219,13.7 L229.824219,11.3 L229.824219,6 L229.774219,5.3 Z" id="Shape" fill="#727685" fill-rule="nonzero"></path>
        <path d="M227.824219,2 L6,2 C3.66666667,2 2.36666667,3.01666667 2.1,5.05 L2,6 L2,39 C2,41.6666667 3.33333333,43 6,43 L227.824219,43 C230.490885,43 231.824219,41.6666667 231.824219,39 L231.824219,6 L231.774219,5.05 C231.474219,3.01666667 230.157552,2 227.824219,2 Z M1.42108547e-14,6 C1.42108547e-14,2 2,0 6,0 L227.824219,0 C231.824219,0 233.824219,2 233.824219,6 L233.824219,39.25 C233.724219,43.0833333 231.724219,45 227.824219,45 L6,45 C2.1,45 0.1,43.0833333 1.42108547e-14,39.25 L1.42108547e-14,6 Z" id="Shape" fill="#9B9DAD" fill-rule="nonzero"></path>
        <path d="M229.824219,11.3 L227.424219,13.7 L229.824219,16.1 L229.824219,39 C229.824219,40.3333333 229.157552,41 227.824219,41 L192.874219,41 L191.324219,39.45 L189.774219,41 L103.4,41 L100.65,38.25 L97.9,41 L6,41 C4.66666667,41 4,40.3333333 4,39 L4,35.4 L6.75,32.65 L4,29.9 L4,6 L4.05,5.5 L4.1,5.3 C4.26666667,4.43333333 4.9,4 6,4 L23.05,4 L25.3,6.25 L27.55,4 L36.9,4 L39.7,6.8 L42.5,4 L227.824219,4 C228.924219,4 229.590885,4.45 229.824219,5.35 L229.824219,6 L229.824219,11.3 Z" id="Shape" fill="#838796" fill-rule="nonzero"></path>
        <path d="M6.45416667,8.7 L6.10416667,7.45 C5.9375,6.95 5.97083333,6.48333333 6.20416667,6.05 C6.40416667,5.61666667 6.72083333,5.3 7.15416667,5.1 L8.55416667,5 L19.8041667,8 C20.3041667,8.1 20.6875,8.38333333 20.9541667,8.85 L29.5041667,22.3 L31.1041667,20.75 L31.4541667,20.45 C31.7541667,20.25 32.1041667,20.15 32.5041667,20.15 C32.9041667,20.15 33.2708333,20.25 33.6041667,20.45 L33.9541667,20.75 L35.9541667,22.75 C36.3208333,23.1166667 36.5041667,23.5833333 36.5041667,24.15 C36.5041667,24.6833333 36.3208333,25.15 35.9541667,25.55 L35.8541667,25.65 L34.4041667,27.15 L35.9041667,28.65 L36.4041667,29.15 L36.8041667,29.1 C37.3708333,29.1 37.8541667,29.3 38.2541667,29.7 L39.5541667,31 C39.9208333,31.3666667 40.1041667,31.8333333 40.1041667,32.4 C40.1041667,32.9666667 39.9208333,33.45 39.5541667,33.85 L39.4541667,33.9 L34.9541667,38.45 C34.5541667,38.8166667 34.0708333,39 33.5041667,39 C32.9375,39 32.4708333,38.8166667 32.1041667,38.45 L30.8041667,37.15 C30.4041667,36.75 30.2041667,36.2666667 30.2041667,35.7 L30.2541667,35.3 L28.2541667,33.3 L26.6541667,34.85 C26.2541667,35.2166667 25.7875,35.4 25.2541667,35.4 C24.6875,35.4 24.2208333,35.2166667 23.8541667,34.85 L21.9541667,32.95 L21.8541667,32.85 C21.4541667,32.45 21.2541667,31.9666667 21.2541667,31.4 C21.2541667,30.9333333 21.3875,30.5333333 21.6541667,30.2 L21.8541667,30 L23.4541667,28.35 L10.0041667,19.85 C9.5375,19.5833333 9.25416667,19.2 9.15416667,18.7 L6.45416667,8.7 M31.5541667,27.15 L34.5041667,24.15 L32.5041667,22.15 L29.1541667,25.5 L19.2541667,9.9 L8.00416667,6.9 L11.0541667,18.15 L26.6541667,28 L23.2541667,31.4 L25.2541667,33.4 L28.2541667,30.45 L32.8541667,35.05 L32.2041667,35.7 L33.5041667,37 L38.1041667,32.4 L36.8041667,31.1 L36.1541667,31.75 L31.5541667,27.15" id="Shape" fill="#6B6B6B" fill-rule="nonzero"></path>
        <path d="M31.3,27 L28,30.3 L25,33.25 L23,31.25 L26.4,27.85 L27.65,26.65 L28.9,25.35 L32.25,22 L34.25,24 L31.3,27 M35.9,31.6 L36.55,30.95 L37.85,32.25 L33.25,36.85 L31.95,35.55 L32.6,34.9 L35.9,31.6" id="Shape" fill="#A8A8A8" fill-rule="nonzero"></path>
        <path d="M35.8541667,25.95 L35.9541667,26.05 C36.3208333,26.4166667 36.5041667,26.8833333 36.5041667,27.45 C36.5041667,27.9833333 36.3208333,28.45 35.9541667,28.85 L35.9041667,28.95 L34.4041667,27.45 L35.8541667,25.95 M39.4541667,34.2 L39.5541667,34.3 C39.9208333,34.6666667 40.1041667,35.1333333 40.1041667,35.7 C40.1041667,36.2666667 39.9208333,36.75 39.5541667,37.15 L34.9541667,41.75 C34.5541667,42.1166667 34.0708333,42.3 33.5041667,42.3 C32.9375,42.3 32.4708333,42.1166667 32.1041667,41.75 L30.8041667,40.45 C30.4041667,40.05 30.2041667,39.5666667 30.2041667,39 L30.2541667,38.6 L28.2541667,36.6 L26.6541667,38.15 C26.2541667,38.5166667 25.7875,38.7 25.2541667,38.7 C24.6875,38.7 24.2208333,38.5166667 23.8541667,38.15 L21.8541667,36.15 C21.4541667,35.75 21.2541667,35.2666667 21.2541667,34.7 C21.2541667,34.1333333 21.4541667,33.6666667 21.8541667,33.3 L21.9541667,33.25 L23.8541667,35.15 C24.2208333,35.5166667 24.6875,35.7 25.2541667,35.7 C25.7875,35.7 26.2541667,35.5166667 26.6541667,35.15 L28.2541667,33.6 L30.2541667,35.6 L30.2041667,36 C30.2041667,36.5666667 30.4041667,37.05 30.8041667,37.45 L32.1041667,38.75 C32.4708333,39.1166667 32.9375,39.3 33.5041667,39.3 C34.0708333,39.3 34.5541667,39.1166667 34.9541667,38.75 L39.4541667,34.2 M21.6541667,30.5 L10.0041667,23.15 C9.5375,22.8833333 9.25416667,22.5 9.15416667,22 L6.10416667,10.75 C5.9375,10.25 5.97083333,9.78333333 6.20416667,9.35 L6.45416667,9 L9.15416667,19 C9.25416667,19.5 9.5375,19.8833333 10.0041667,20.15 L23.4541667,28.65 L21.8541667,30.3 L21.6541667,30.5" id="Shape" fill-opacity="0.101960784" fill="#000000" fill-rule="nonzero"></path>
        <polyline id="Shape" fill="#E0E0E0" fill-rule="nonzero" points="26.65 28.1 11.05 18.25 8 7 27.9 26.9 26.65 28.1"></polyline>
        <polyline id="Shape" fill="#666666" fill-rule="nonzero" points="31.3 27 35.9 31.6 32.6 34.9 28 30.3 31.3 27"></polyline>
        <polyline id="Shape" fill="#FFFFFF" fill-rule="nonzero" points="8 7 19.25 10 29.15 25.6 27.9 26.9 8 7"></polyline>
        <path d="M233.324219,42.75 C233.324219,46.75 231.324219,48.75 227.324219,48.75 L6,48.75 C2,48.75 -1.42108547e-14,46.75 -1.42108547e-14,42.75 L-1.42108547e-14,39 C0.1,42.8333333 2.1,44.75 6,44.75 L227.324219,44.75 C231.224219,44.75 233.224219,42.8333333 233.324219,39 L233.324219,42.75 Z" id="Shape" fill="#616374" fill-rule="nonzero"></path>
    </g>
</svg>