<?xml version="1.0" encoding="UTF-8"?>
<svg width="234px" height="48px" viewBox="0 0 234 48" version="1.1" xmlns="http://www.w3.org/2000/svg" xmlns:xlink="http://www.w3.org/1999/xlink">
    <!-- Generator: Sketch 42 (36781) - http://www.bohemiancoding.com/sketch -->
    <title>Slice 3</title>
    <desc>Created with Sketch.</desc>
    <defs></defs>
    <g id="Page-1" stroke="none" stroke-width="1" fill="none" fill-rule="evenodd">
        <path d="M231.824219,6 L231.824219,39 C231.824219,41.6666667 230.490885,43 227.824219,43 L6,43 C3.33333333,43 2,41.6666667 2,39 L2,6 L2.1,5.05 C2.36666667,3.01666667 3.66666667,2 6,2 L227.824219,2 C230.157552,2 231.474219,3.01666667 231.774219,5.05 L231.824219,6 Z M229.774219,5.3 C229.590885,4.45 228.924219,4 227.824219,4 L42.5,4 L39.7,6.8 L36.9,4 L27.55,4 L25.3,6.25 L23.05,4 L6,4 C4.9,4 4.26666667,4.43333333 4.1,5.3 L4.05,5.5 L4,6 L4,29.9 L6.75,32.65 L4,35.4 L4,39 C4,40.3333333 4.66666667,41 6,41 L97.9,41 L100.65,38.25 L103.4,41 L189.774219,41 L191.324219,39.45 L192.874219,41 L227.824219,41 C229.157552,41 229.824219,40.3333333 229.824219,39 L229.824219,16.1 L227.424219,13.7 L229.824219,11.3 L229.824219,6 L229.774219,5.3 Z" id="Shape" fill="#727685" fill-rule="nonzero"></path>
        <path d="M227.824219,2 L6,2 C3.66666667,2 2.36666667,3.01666667 2.1,5.05 L2,6 L2,39 C2,41.6666667 3.33333333,43 6,43 L227.824219,43 C230.490885,43 231.824219,41.6666667 231.824219,39 L231.824219,6 L231.774219,5.05 C231.474219,3.01666667 230.157552,2 227.824219,2 Z M0,6 C0,2 2,0 6,0 L227.824219,0 C231.824219,0 233.824219,2 233.824219,6 L233.824219,39.25 C233.724219,43.0833333 231.724219,45 227.824219,45 L6,45 C2.1,45 0.1,43.0833333 0,39.25 L0,6 Z" id="Shape" fill="#9B9DAD" fill-rule="nonzero"></path>
        <path d="M229.824219,11.3 L227.424219,13.7 L229.824219,16.1 L229.824219,39 C229.824219,40.3333333 229.157552,41 227.824219,41 L192.874219,41 L191.324219,39.45 L189.774219,41 L103.4,41 L100.65,38.25 L97.9,41 L6,41 C4.66666667,41 4,40.3333333 4,39 L4,35.4 L6.75,32.65 L4,29.9 L4,6 L4.05,5.5 L4.1,5.3 C4.26666667,4.43333333 4.9,4 6,4 L23.05,4 L25.3,6.25 L27.55,4 L36.9,4 L39.7,6.8 L42.5,4 L227.824219,4 C228.924219,4 229.590885,4.45 229.824219,5.35 L229.824219,6 L229.824219,11.3 Z" id="Shape" fill="#838796" fill-rule="nonzero"></path>
        <path d="M233.324219,42.75 C233.324219,46.75 231.324219,48.75 227.324219,48.75 L6,48.75 C2,48.75 0,46.75 0,42.75 L0,39 C0.1,42.8333333 2.1,44.75 6,44.75 L227.324219,44.75 C231.224219,44.75 233.224219,42.8333333 233.324219,39 L233.324219,42.75 Z" id="Shape" fill="#616374" fill-rule="nonzero"></path>
    </g>
</svg>