<?xml version="1.0" encoding="UTF-8"?>
<svg width="900px" height="668px" viewBox="0 0 900 668" version="1.1" xmlns="http://www.w3.org/2000/svg" xmlns:xlink="http://www.w3.org/1999/xlink">
    <!-- Generator: Sketch 42 (36781) - http://www.bohemiancoding.com/sketch -->
    <title>Slice</title>
    <desc>Created with Sketch.</desc>
    <defs></defs>
    <g id="Page-1" stroke="none" stroke-width="1" fill="none" fill-rule="evenodd">
        <path d="M847.014063,5 L7.05,5 C5.01666667,5 4,6.01666667 4,8.05 L4,635.678906 L5.75,637.428906 L4,639.128906 L4,644.078906 L6.8,646.878906 L4,649.678906 L4,660.378906 C4,662.41224 5.01666667,663.428906 7.05,663.428906 L15.85,663.428906 L18.05,661.228906 L20.25,663.428906 L891.314062,663.428906 C893.380729,663.428906 894.414062,662.41224 894.414062,660.378906 L894.414062,654.678906 L890.314062,650.578906 L894.414062,646.428906 L894.414062,24.85 L891.314063,21.75 L894.414062,18.6 L894.414062,8.05 C894.414062,6.01666667 893.380729,5 891.314063,5 L852.764063,5 L849.914063,7.9 L847.014063,5 Z M896.414062,660.378906 C896.414062,663.745573 894.714062,665.428906 891.314062,665.428906 L7.05,665.428906 C3.68333333,665.428906 2,663.745573 2,660.378906 L2,8.05 C2,4.68333333 3.68333333,3 7.05,3 L891.314063,3 C894.714062,3 896.414062,4.68333333 896.414062,8.05 L896.414062,660.378906 Z" id="Shape" fill="#9B9DAD" fill-rule="nonzero"></path>
        <path d="M852.764063,5 L891.314062,5 C893.380729,5 894.414062,6.01666667 894.414062,8.05 L894.414062,18.6 L891.314062,21.75 L894.414062,24.85 L894.414062,646.428906 L890.314062,650.578906 L894.414062,654.678906 L894.414062,660.378906 C894.414062,662.41224 893.380729,663.428906 891.314062,663.428906 L20.25,663.428906 L18.05,661.228906 L15.85,663.428906 L7.05,663.428906 C5.01666667,663.428906 4,662.41224 4,660.378906 L4,649.678906 L6.8,646.878906 L4,644.078906 L4,639.128906 L5.75,637.428906 L4,635.678906 L4,8.05 C4,6.01666667 5.01666667,5 7.05,5 L847.014062,5 L849.914062,7.9 L852.764063,5 Z" id="Shape" fill="#838796" fill-rule="nonzero"></path>
        <path d="M898.414062,660.378906 C898.414062,662.71224 897.797396,664.445573 896.564063,665.578906 C895.430729,666.81224 893.680729,667.428906 891.314063,667.428906 L7.05,667.428906 C2.35,667.428906 0,665.078906 0,660.378906 L0,8.05 C0,3.35 2.35,1 7.05,1 L891.314063,1 C893.680729,1 895.430729,1.61666667 896.564063,2.85 C897.797396,3.98333333 898.414062,5.71666667 898.414062,8.05 L898.414062,660.378906 Z M891.314063,3 L7.05,3 C3.68333333,3 2,4.68333333 2,8.05 L2,660.378906 C2,663.745573 3.68333333,665.428906 7.05,665.428906 L891.314062,665.428906 C894.714062,665.428906 896.414062,663.745573 896.414062,660.378906 L896.414062,8.05 C896.414062,4.68333333 894.714062,3 891.314063,3 Z" id="Shape" fill="#616374" fill-rule="nonzero"></path>
    </g>
</svg>