<?xml version="1.0" encoding="UTF-8"?>
<svg width="900px" height="126px" viewBox="0 0 900 126" version="1.1" xmlns="http://www.w3.org/2000/svg" xmlns:xlink="http://www.w3.org/1999/xlink">
    <!-- Generator: Sketch 42 (36781) - http://www.bohemiancoding.com/sketch -->
    <title>Slice 1</title>
    <desc>Created with Sketch.</desc>
    <defs></defs>
    <g id="Page-1" stroke="none" stroke-width="1" fill="none" fill-rule="evenodd">
        <path d="M855.569531,6.9 L852.669531,4 L7.05,6 C5.01666667,6 4,7.01666667 4,9.05 L4,94.0695313 L5.75,95.8195313 L4,97.5195312 L4,102.469531 L6.8,105.269531 L4,108.069531 L4,118.769531 C4,120.802865 5.01666667,121.819531 7.05,121.819531 L15.85,121.819531 L18.05,119.619531 L20.25,121.819531 L891.208594,120.14375 C893.27526,120.14375 894.308594,119.127083 894.308594,117.09375 L894.308594,111.39375 L890.208594,107.29375 L894.308594,103.14375 L894.308594,24.1742188 L891.208594,21.0742187 L894.308594,17.9242188 L894.308594,7.37421875 C894.308594,5.34088542 893.27526,4.32421875 891.208594,4.32421875 L858.419531,4 L855.569531,6.9 Z M2,9.05 C2,5.68333333 3.68333333,4 7.05,4 L891.208594,2.32421875 C894.608594,2.32421875 896.308594,4.00755208 896.308594,7.37421875 L896.308594,117.09375 C896.308594,120.460417 894.608594,122.14375 891.208594,122.14375 L7.05,123.819531 C3.68333333,123.819531 2,122.136198 2,118.769531 L2,9.05 Z" id="Shape" fill="#B7916A" fill-rule="nonzero"></path>
        <path d="M891.208594,4.32421875 C893.27526,4.32421875 894.308594,5.34088542 894.308594,7.37421875 L894.308594,17.9242188 L891.208594,21.0742187 L894.308594,24.1742188 L894.308594,103.14375 L890.208594,107.29375 L894.308594,111.39375 L894.308594,117.09375 C894.308594,119.127083 893.27526,120.14375 891.208594,120.14375 L20.25,121.819531 L18.05,119.619531 L15.85,121.819531 L7.05,121.819531 C5.01666667,121.819531 4,120.802865 4,118.769531 L4,108.069531 L6.8,105.269531 L4,102.469531 L4,97.5195312 L5.75,95.8195313 L4,94.0695313 L4,9.05 C4,7.01666667 5.01666667,6 7.05,6 L852.669531,4 L855.569531,6.9 L858.419531,4 L891.208594,4.32421875 Z" id="Shape" fill="#97714A" fill-rule="nonzero"></path>
        <path d="M898.308594,7.37421875 L898.308594,117.09375 C898.308594,119.427083 897.691927,121.160417 896.458594,122.29375 C895.32526,123.527083 893.57526,124.14375 891.208594,124.14375 L7.05,125.819531 C2.35,125.819531 -2.84217094e-14,123.469531 -2.84217094e-14,118.769531 L-2.84217094e-14,9.05 C-2.84217094e-14,4.35 2.35,2 7.05,2 L891.208594,0.32421875 C893.57526,0.32421875 895.32526,0.940885417 896.458594,2.17421875 C897.691927,3.30755208 898.308594,5.04088542 898.308594,7.37421875 Z M7.05,123.819531 L891.208594,122.14375 C894.608594,122.14375 896.308594,120.460417 896.308594,117.09375 L896.308594,7.37421875 C896.308594,4.00755208 894.608594,2.32421875 891.208594,2.32421875 L7.05,4 C3.68333333,4 2,5.68333333 2,9.05 L2,118.769531 C2,122.136198 3.68333333,123.819531 7.05,123.819531 Z" id="Shape" fill="#886644" fill-rule="nonzero"></path>
    </g>
</svg>