<?xml version="1.0" encoding="UTF-8"?>
<svg width="9px" height="18px" viewBox="0 0 9 18" version="1.1" xmlns="http://www.w3.org/2000/svg" xmlns:xlink="http://www.w3.org/1999/xlink">
    <!-- Generator: Sketch 42 (36781) - http://www.bohemiancoding.com/sketch -->
    <title>hp_begin</title>
    <desc>Created with Sketch.</desc>
    <defs></defs>
    <g id="Page-1" stroke="none" stroke-width="1" fill="none" fill-rule="evenodd">
        <g id="hp_begin" fill-rule="nonzero">
            <path d="M9,16 L9,18 L8.85,18 L8.7,18 C6.36666667,17.9666667 4.35,17.0833333 2.65,15.35 L2.6,15.35 C0.866666667,13.5833333 0,11.4666667 0,9 L0.05,8 C0.25,6 1.08333333,4.23333333 2.55,2.7 L2.7,2.55 C4.4,0.916666667 6.4,0.0666666667 8.7,0 L8.85,0 L9,0 L9,2 L8.85,2 L8.7,2 C6.93333333,2.06666667 5.38333333,2.73333333 4.05,4 L4,4.05 C2.9,5.18333333 2.26666667,6.5 2.1,8 L2,9 C2,10.9333333 2.68333333,12.5833333 4.05,13.95 C5.38333333,15.25 6.93333333,15.9333333 8.7,16 L8.85,16 L9,16" id="Shape" fill="#CD5D12"></path>
            <path d="M9,16 L8.85,16 L8.7,16 C6.93333333,15.9333333 5.38333333,15.25 4.05,13.95 C2.68333333,12.5833333 2,10.9333333 2,9 L2.1,8 C2.26666667,6.5 2.9,5.18333333 4,4.05 L4.05,4 C5.38333333,2.73333333 6.93333333,2.06666667 8.7,2 L8.85,2 L9,2 L9,8 L4.1,8 L4,9 C4,10.3666667 4.48333333,11.5333333 5.45,12.5 C6.38333333,13.4333333 7.46666667,13.9333333 8.7,14 L8.85,14 L9,14 L9,16" id="Shape" fill="#FA8132"></path>
            <path d="M9,8 L9,14 L8.85,14 L8.7,14 C7.46666667,13.9333333 6.38333333,13.4333333 5.45,12.5 C4.48333333,11.5333333 4,10.3666667 4,9 L4.1,8 L9,8" id="Shape" fill="#E86A17"></path>
        </g>
    </g>
</svg>