<?xml version="1.0" encoding="UTF-8"?>
<svg width="9px" height="18px" viewBox="0 0 9 18" version="1.1" xmlns="http://www.w3.org/2000/svg" xmlns:xlink="http://www.w3.org/1999/xlink">
    <!-- Generator: Sketch 42 (36781) - http://www.bohemiancoding.com/sketch -->
    <title>hp_end</title>
    <desc>Created with Sketch.</desc>
    <defs></defs>
    <g id="Page-1" stroke="none" stroke-width="1" fill="none" fill-rule="evenodd">
        <g id="hp_end" fill-rule="nonzero">
            <path d="M0,16 L0.15,16 L0.3,16 C2.06666667,15.9333333 3.61666667,15.25 4.95,13.95 C6.31666667,12.5833333 7,10.9333333 7,9 L6.9,8 C6.73333333,6.5 6.1,5.18333333 5,4.05 L4.95,4 C3.61666667,2.73333333 2.06666667,2.06666667 0.3,2 L0.15,2 L0,2 L0,0 L0.15,0 L0.3,0 C2.6,0.0666666667 4.6,0.916666667 6.3,2.55 L6.45,2.7 C7.91666667,4.23333333 8.75,6 8.95,8 L9,9 C9,11.4666667 8.13333333,13.5833333 6.4,15.35 L6.35,15.35 C4.65,17.0833333 2.63333333,17.9666667 0.3,18 L0.15,18 L0,18 L0,16" id="Shape" fill="#CD5D12"></path>
            <path d="M0,16 L0,14 L0.15,14 L0.3,14 C1.53333333,13.9333333 2.61666667,13.4333333 3.55,12.5 C4.51666667,11.5333333 5,10.3666667 5,9 L4.9,8 L0,8 L0,2 L0.15,2 L0.3,2 C2.06666667,2.06666667 3.61666667,2.73333333 4.95,4 L5,4.05 C6.1,5.18333333 6.73333333,6.5 6.9,8 L7,9 C7,10.9333333 6.31666667,12.5833333 4.95,13.95 C3.61666667,15.25 2.06666667,15.9333333 0.3,16 L0.15,16 L0,16" id="Shape" fill="#FA8132"></path>
            <path d="M0,8 L4.9,8 L5,9 C5,10.3666667 4.51666667,11.5333333 3.55,12.5 C2.61666667,13.4333333 1.53333333,13.9333333 0.3,14 L0.15,14 L0,14 L0,8" id="Shape" fill="#E86A17"></path>
        </g>
    </g>
</svg>