<?xml version="1.0" encoding="UTF-8"?>
<svg width="369px" height="326px" viewBox="0 0 369 326" version="1.1" xmlns="http://www.w3.org/2000/svg" xmlns:xlink="http://www.w3.org/1999/xlink">
    <!-- Generator: Sketch 42 (36781) - http://www.bohemiancoding.com/sketch -->
    <title>Group</title>
    <desc>Created with Sketch.</desc>
    <defs></defs>
    <g id="Page-1" stroke="none" stroke-width="1" fill="none" fill-rule="evenodd">
        <g id="Group" transform="translate(0.000000, -1.000000)" fill-rule="nonzero">
            <g id="Status">
                <path d="M325.514844,7.56171875 L322.614844,4.66171875 L7.05,6.66171875 C5.01666667,6.66171875 4,7.67838542 4,9.71171875 L4,295.069531 L5.75,296.819531 L4,298.519531 L4,303.469531 L6.8,306.269531 L4,309.069531 L4,319.769531 C4,321.802865 5.01666667,322.819531 7.05,322.819531 L15.85,322.819531 L18.05,320.619531 L20.25,322.819531 L361.153906,321.14375 C363.220573,321.14375 364.253906,320.127083 364.253906,318.09375 L364.253906,312.39375 L360.153906,308.29375 L364.253906,304.14375 L364.253906,24.8359375 L361.153906,21.7359375 L364.253906,18.5859375 L364.253906,8.0359375 C364.253906,6.00260417 363.220573,4.9859375 361.153906,4.9859375 L328.364844,4.66171875 L325.514844,7.56171875 Z M2,9.71171875 C2,6.34505208 3.68333333,4.66171875 7.05,4.66171875 L361.153906,2.9859375 C364.553906,2.9859375 366.253906,4.66927083 366.253906,8.0359375 L366.253906,318.09375 C366.253906,321.460417 364.553906,323.14375 361.153906,323.14375 L7.05,324.819531 C3.68333333,324.819531 2,323.136198 2,319.769531 L2,9.71171875 Z" id="Shape" fill="#B7916A"></path>
                <path d="M361.153906,4.9859375 C363.220573,4.9859375 364.253906,6.00260417 364.253906,8.0359375 L364.253906,18.5859375 L361.153906,21.7359375 L364.253906,24.8359375 L364.253906,304.14375 L360.153906,308.29375 L364.253906,312.39375 L364.253906,318.09375 C364.253906,320.127083 363.220573,321.14375 361.153906,321.14375 L20.25,322.819531 L18.05,320.619531 L15.85,322.819531 L7.05,322.819531 C5.01666667,322.819531 4,321.802865 4,319.769531 L4,309.069531 L6.8,306.269531 L4,303.469531 L4,298.519531 L5.75,296.819531 L4,295.069531 L4,9.71171875 C4,7.67838542 5.01666667,6.66171875 7.05,6.66171875 L322.614844,4.66171875 L325.514844,7.56171875 L328.364844,4.66171875 L361.153906,4.9859375 Z" id="Shape" fill="#97714A"></path>
                <path d="M368.253906,8.0359375 L368.253906,318.09375 C368.253906,320.427083 367.63724,322.160417 366.403906,323.29375 C365.270573,324.527083 363.520573,325.14375 361.153906,325.14375 L7.05,326.819531 C2.35,326.819531 0,324.469531 0,319.769531 L0,9.71171875 C0,5.01171875 2.35,2.66171875 7.05,2.66171875 L361.153906,0.9859375 C363.520573,0.9859375 365.270573,1.60260417 366.403906,2.8359375 C367.63724,3.96927083 368.253906,5.70260417 368.253906,8.0359375 Z M7.05,324.819531 L361.153906,323.14375 C364.553906,323.14375 366.253906,321.460417 366.253906,318.09375 L366.253906,8.0359375 C366.253906,4.66927083 364.553906,2.9859375 361.153906,2.9859375 L7.05,4.66171875 C3.68333333,4.66171875 2,6.34505208 2,9.71171875 L2,319.769531 C2,323.136198 3.68333333,324.819531 7.05,324.819531 Z" id="Shape" fill="#886644"></path>
            </g>
            <path d="M347.314844,109.561719 L308.764844,109.561719 L305.914844,112.461719 L303.014844,109.561719 L22.05,109.561719 C20.05,109.561719 19.0333333,110.545052 19,112.511719 L19,110.611719 C19,108.578385 20.0166667,107.561719 22.05,107.561719 L303.014844,107.561719 L305.914844,110.461719 L308.764844,107.561719 L347.314844,107.561719 C349.38151,107.561719 350.414844,108.578385 350.414844,110.611719 L350.414844,112.511719 C350.38151,110.545052 349.348177,109.561719 347.314844,109.561719 Z M20.75,284 L19,285.7 L19,283.7 L19.75,283 L20.75,284 Z M21.8,293.45 L19,296.25 L19,294.25 L20.8,292.45 L21.8,293.45 Z M346.314844,297.15 L347.314844,296.15 L350.414844,299.25 L350.414844,301.25 L346.314844,297.15 Z M347.314844,126.311719 L348.314844,125.311719 L350.414844,127.411719 L350.414844,129.411719 L347.314844,126.311719 Z" id="Shape" fill-opacity="0.101960784" fill="#000000"></path>
            <path d="M350.414844,293 L347.314844,296.15 L346.314844,297.15 L350.414844,301.25 L350.414844,306.95 C350.414844,308.983333 349.38151,310 347.314844,310 L35.25,310 L33.05,307.8 L30.85,310 L22.05,310 C20.0166667,310 19,308.983333 19,306.95 L19,296.25 L21.8,293.45 L20.8,292.45 L19,290.65 L19,285.7 L20.75,284 L19.75,283 L19,282.25 L19,112.511719 C19.0333333,110.545052 20.05,109.561719 22.05,109.561719 L303.014844,109.561719 L305.914844,112.461719 L308.764844,109.561719 L347.314844,109.561719 C349.348177,109.561719 350.38151,110.545052 350.414844,112.511719 L350.414844,123.161719 L348.314844,125.311719 L347.314844,126.311719 L350.414844,129.411719 L350.414844,293 Z" id="Shape" fill="#D3BF8F"></path>
            <path d="M341,79 L341,77 L341.15,77 L341.3,77 C343.6,77.0666667 345.6,77.9166667 347.3,79.55 L347.45,79.7 C348.916667,81.2333333 349.75,83 349.95,85 L350,86 L349.95,87 C349.75,85 348.916667,83.2333333 347.45,81.7 L347.3,81.55 C345.6,79.9166667 343.6,79.0666667 341.3,79 L341.15,79 L341,79" id="Shape" fill-opacity="0.2" fill="#000000"></path>
            <path d="M341,79 L341.15,79 L341.3,79 C343.6,79.0666667 345.6,79.9166667 347.3,81.55 L347.45,81.7 C348.916667,83.2333333 349.75,85 349.95,87 C349.75,89.0333333 348.9,90.8166667 347.4,92.35 L347.35,92.35 C345.65,94.0833333 343.633333,94.9666667 341.3,95 L341.15,95 L341,95 L341,79" id="Shape" fill-opacity="0.101960784" fill="#000000"></path>
            <polygon id="Shape" fill-opacity="0.2" fill="#000000" points="28 77 341 77 341 79 28 79"></polygon>
            <polygon id="Shape" fill-opacity="0.101960784" fill="#000000" points="341 79 341 95 28 95 28 79"></polygon>
            <path d="M28,79 L27.85,79 L27.7,79 C25.4,79.0666667 23.4,79.9166667 21.7,81.55 L21.55,81.7 C20.0833333,83.2333333 19.25,85 19.05,87 L19,86 L19.05,85 C19.25,83 20.0833333,81.2333333 21.55,79.7 L21.7,79.55 C23.4,77.9166667 25.4,77.0666667 27.7,77 L27.85,77 L28,77 L28,79" id="Shape" fill-opacity="0.2" fill="#000000"></path>
            <path d="M27.95,79 L27.95,95 L27.8,95 L27.65,95 C25.3166667,94.9666667 23.3,94.0833333 21.6,92.35 L21.55,92.35 C20.05,90.8166667 19.2,89.0333333 19,87 C19.2,85 20.0333333,83.2333333 21.5,81.7 L21.65,81.55 C23.35,79.9166667 25.35,79.0666667 27.65,79 L27.8,79 L27.95,79" id="Shape" fill-opacity="0.101960784" fill="#000000"></path>
        </g>
    </g>
</svg>